<svg width="21.169922" height="21.170013" viewBox="0 0 21.1699 21.17" fill="none" xmlns="http://www.w3.org/2000/svg" xmlns:xlink="http://www.w3.org/1999/xlink">
	<desc>
			Created with Pixso.
	</desc>
	<defs/>
	<path id="monetization_on" d="M9.63232 17.9945L11.4846 17.9945L11.4846 16.6714C12.3667 16.5126 13.1255 16.1686 13.7605 15.6393C14.3955 15.1101 14.7131 14.325 14.7131 13.2842C14.7131 12.5432 14.5015 11.864 14.0781 11.2466C13.6545 10.6291 12.8079 10.091 11.5376 9.63235C10.4792 9.27951 9.74707 8.97079 9.34131 8.70618C8.93555 8.44153 8.73267 8.0799 8.73267 7.62122C8.73267 7.16251 8.89575 6.80087 9.22217 6.53622C9.54858 6.27161 10.0205 6.13931 10.6379 6.13931C11.2024 6.13931 11.6436 6.27603 11.9609 6.54947C12.2786 6.82291 12.5081 7.16251 12.6492 7.56827L14.3428 6.88025C14.1487 6.26279 13.7913 5.72473 13.271 5.26605C12.7505 4.80734 12.1729 4.55154 11.5376 4.49863L11.5376 3.17551L9.6853 3.17551L9.6853 4.49863C8.80322 4.69269 8.11523 5.08081 7.62109 5.66296C7.1272 6.24515 6.88037 6.89789 6.88037 7.62122C6.88037 8.45035 7.1228 9.12073 7.60791 9.63235C8.09302 10.144 8.8562 10.585 9.89697 10.9555C11.0083 11.3612 11.7803 11.7229 12.2124 12.0404C12.6448 12.358 12.8608 12.7726 12.8608 13.2842C12.8608 13.8664 12.6536 14.2942 12.239 14.5676C11.8242 14.8411 11.3259 14.9778 10.7439 14.9778C10.1616 14.9778 9.64551 14.7969 9.1958 14.4353C8.74585 14.0736 8.41504 13.5312 8.20337 12.8079L6.45679 13.4959C6.70386 14.3427 7.08765 15.0263 7.60791 15.5467C8.12842 16.0671 8.80322 16.4244 9.63232 16.6184L9.63232 17.9945ZM10.585 21.17C9.12085 21.17 7.74463 20.8922 6.45679 20.3364C5.16895 19.7807 4.04883 19.0266 3.09619 18.0739C2.14355 17.1212 1.38916 16.001 0.833496 14.7132C0.277832 13.4253 0 12.0493 0 10.585C0 9.12073 0.277832 7.74469 0.833496 6.45685C1.38916 5.16901 2.14355 4.04877 3.09619 3.0961C4.04883 2.14346 5.16895 1.38928 6.45679 0.833557C7.74463 0.277863 9.12085 0 10.585 0C12.0493 0 13.4253 0.277863 14.7131 0.833557C16.001 1.38928 17.1213 2.14346 18.074 3.0961C19.0266 4.04877 19.7808 5.16901 20.3364 6.45685C20.8921 7.74469 21.1699 9.12073 21.1699 10.585C21.1699 12.0493 20.8921 13.4253 20.3364 14.7132C19.7808 16.001 19.0266 17.1212 18.074 18.0739C17.1213 19.0266 16.001 19.7807 14.7131 20.3364C13.4253 20.8922 12.0493 21.17 10.585 21.17Z" fill="#FFFFFF" fill-opacity="1.000000" fill-rule="nonzero"/>
</svg>
